<?xml version="1.0" encoding="UTF-8"?>
<svg xmlns="http://www.w3.org/2000/svg" version="1.1" viewBox="0 0 100 100">
  <defs>
    <style>
      .cls-1 {
        fill: #ffcca0;
      }

      .cls-1, .cls-2, .cls-3, .cls-4, .cls-5, .cls-6, .cls-7 {
        fill-rule: evenodd;
      }

      .cls-2, .cls-8, .cls-9, .cls-10, .cls-11, .cls-7 {
        stroke: #22263e;
        stroke-miterlimit: 10;
      }

      .cls-3 {
        fill: #e6b873;
      }

      .cls-8 {
        fill: #bcbec0;
        stroke-linecap: round;
      }

      .cls-8, .cls-9, .cls-10, .cls-11 {
        stroke-width: 2px;
      }

      .cls-4 {
        fill: #edeeef;
      }

      .cls-9 {
        fill: #b8f4ef;
      }

      .cls-10 {
        fill: #8cbafa;
      }

      .cls-5 {
        fill: #8bd77a;
      }

      .cls-11 {
        fill: none;
      }

      .cls-7 {
        stroke-width: .5px;
      }
    </style>
  </defs>
  <!-- Generator: Adobe Illustrator 28.6.0, SVG Export Plug-In . SVG Version: 1.2.0 Build 709)  -->
  <g>
    <g id="Layer_1">
      <g>
        <rect class="cls-9" x="30.8" y="11.3" width="38.3" height="72.2" rx="1.4" ry="1.4"/>
        <path class="cls-10" d="M32,11.3h36c.7,0,1.2.5,1.2,1.2v17.1H30.8V12.5c0-.7.5-1.2,1.2-1.2Z"/>
        <rect class="cls-8" x="30.8" y="29.7" width="38.3" height="22.6"/>
        <line class="cls-11" x1="35.7" y1="83.5" x2="35.7" y2="88.7"/>
        <line class="cls-11" x1="64.1" y1="83.5" x2="64.1" y2="88.7"/>
      </g>
      <g>
        <path id="_299431744" class="cls-2" d="M19.1,12.5c-4.4,0-8,3.6-8,8,0,4.4,3.6,8,8,8,4.4,0,8-3.6,8-8,0-4.4-3.6-8-8-8h0ZM19.1,28.8c-2.2,0-4.3-.9-5.9-2.4-1.6-1.6-2.4-3.7-2.4-5.9s.9-4.3,2.4-5.9c1.6-1.6,3.7-2.4,5.9-2.4,2.2,0,4.3.9,5.9,2.4,1.6,1.6,2.4,3.7,2.4,5.9,0,2.2-.9,4.3-2.4,5.9-1.6,1.6-3.7,2.4-5.9,2.4h0Z"/>
        <path id="_299431888" class="cls-2" d="M19.1,13.3c-4,0-7.2,3.2-7.2,7.2,0,4,3.2,7.2,7.2,7.2,4,0,7.2-3.2,7.2-7.2,0-4-3.2-7.2-7.2-7.2h0ZM19.1,28c-4.1,0-7.5-3.3-7.5-7.5,0-4.1,3.3-7.5,7.5-7.5s7.5,3.3,7.5,7.5c0,4.1-3.3,7.5-7.5,7.5Z"/>
        <path id="_299432032" class="cls-2" d="M14.1,21.7l2.9,2.9,7.1-7.1-.9-.9-6.1,6.1c0,0-.1,0-.2,0l-1.8-1.8-.9.9ZM17,24.9s0,0-.1,0l-3.1-3.1c0,0,0-.1,0-.2l1.1-1.1c0,0,.2,0,.2,0l1.8,1.8,6.1-6.1s0,0,.1,0h0s0,0,.1,0l1.1,1.1c0,0,0,.1,0,.2l-7.3,7.3s0,0-.1,0h0Z"/>
      </g>
      <path id="_299431672" class="cls-6" d="M11.6,20.5c0-4.1,3.3-7.5,7.5-7.5s7.5,3.3,7.5,7.5c0,4.1-3.3,7.5-7.5,7.5-4.1,0-7.5-3.3-7.5-7.5h0ZM19.1,12.5c-4.4,0-8,3.6-8,8,0,4.4,3.6,8,8,8,4.4,0,8-3.6,8-8,0-4.4-3.6-8-8-8h0Z"/>
      <path id="_299431576" class="cls-4" d="M19.1,34c-4.8,0-8.7,3.9-8.7,8.7,0,4.8,3.9,8.7,8.7,8.7,4.8,0,8.7-3.9,8.7-8.7,0-4.8-3.9-8.7-8.7-8.7h0ZM14.3,42.6l2.2,2.2,7.4-7.4s0,0,.1,0c0,0,0,0,.1,0l1.4,1.4c0,0,0,.2,0,.3l-8.9,8.9s0,0-.1,0c0,0,0,0-.1,0l-3.8-3.8c0,0,0-.2,0-.3l1.4-1.4c0,0,.2,0,.3,0h0Z"/>
      <path id="_299431576-2" data-name="_299431576" class="cls-4" d="M19.1,58.5c-4.8,0-8.7,3.9-8.7,8.7,0,4.8,3.9,8.7,8.7,8.7,4.8,0,8.7-3.9,8.7-8.7,0-4.8-3.9-8.7-8.7-8.7h0ZM14.3,67.1l2.2,2.2,7.4-7.4s0,0,.1,0c0,0,0,0,.1,0l1.4,1.4c0,0,0,.2,0,.3l-8.9,8.9s0,0-.1,0c0,0,0,0-.1,0l-3.8-3.8c0,0,0-.2,0-.3l1.4-1.4c0,0,.2,0,.3,0h0Z"/>
      <path id="_299431000" class="cls-5" d="M23.1,16.5l-6.1,6.1c0,0-.1,0-.2,0l-1.8-1.8-.9.9,2.9,2.9,7.1-7.1-.9-.9Z"/>
      <path id="_344908848" class="cls-6" d="M85.9,44.4h-19c-.2,0-.4-.2-.4-.4s.2-.4.4-.4h19c.2,0,.4.2.4.4s-.2.4-.4.4Z"/>
      <path id="_344908752" class="cls-6" d="M85.9,49.7h-19c-.2,0-.4-.2-.4-.4s.2-.4.4-.4h19c.2,0,.4.2.4.4s-.2.4-.4.4Z"/>
      <path id="_344909112" class="cls-6" d="M85.9,54.9h-19c-.2,0-.4-.2-.4-.4s.2-.4.4-.4h19c.2,0,.4.2.4.4s-.2.4-.4.4Z"/>
      <path id="_344909064" class="cls-6" d="M81.1,60.1h-14.2c-.2,0-.4-.2-.4-.4s.2-.4.4-.4h14.2c.2,0,.4.2.4.4s-.2.4-.4.4Z"/>
      <path id="_344908488" class="cls-6" d="M81.1,65.3h-14.2c-.2,0-.4-.2-.4-.4s.2-.4.4-.4h14.2c.2,0,.4.2.4.4s-.2.4-.4.4Z"/>
      <path id="_344908584" class="cls-2" d="M90.5,56.6c-.2,0-.1-.4-.1-.6l-.4-19.4h-6.5c-.2,0-.4-.2-.4-.4s.2-.4.4-.4h6.8c.2,0,.4.2.4.4v20.1c0,.2,0,.3-.2.3ZM90.4,73.1h-27.9c-.2,0-.4-.2-.4-.4v-36.5c0-.2.2-.4.4-.4h6.8c.2,0,.4.2.4.4,0,.2-.2.4-.4.4h-6.5s0,35.7,0,35.7h27.2v-1.5c0-.2.2-.3.4-.3.2,0,.4,0,.4.3v1.9c0,.2-.2.4-.4.4Z"/>
      <path id="_344908968" class="cls-2" d="M69.7,37.8h13.5v-2.9h-13.5v2.9ZM83.5,38.5h-14.2c-.2,0-.4-.2-.4-.4v-3.6c0-.2.2-.4.4-.4h14.2c.2,0,.4.2.4.4v3.6c0,.2-.2.4-.4.4h0Z"/>
      <path id="_344909184" class="cls-6" d="M90.4,57.2c-3.5,0-6.3,2.8-6.3,6.3s2.8,6.3,6.3,6.3c3.5,0,6.3-2.8,6.3-6.3s-2.8-6.3-6.3-6.3h0ZM90.4,70.7c-3.9,0-7.1-3.2-7.1-7.1s3.2-7.1,7.1-7.1c3.9,0,7.1,3.2,7.1,7.1s-3.2,7.1-7.1,7.1Z"/>
      <path id="_344908896" class="cls-6" d="M90.4,58.7c-2.7,0-4.9,2.2-4.9,4.9s2.2,4.9,4.9,4.9c2.7,0,4.9-2.2,4.9-4.9s-2.2-4.9-4.9-4.9h0ZM90.4,69.2c-3.1,0-5.7-2.5-5.7-5.7s2.5-5.7,5.7-5.7c3.1,0,5.7,2.5,5.7,5.7s-2.5,5.7-5.7,5.7Z"/>
      <path id="_344908776" class="cls-6" d="M87.7,63.8l1.8,1.8,3.6-3.6-.5-.5-2.8,2.8c0,0-.2.1-.3.1h0c-.1,0-.2,0-.3-.1l-1-1-.5.5ZM89.5,66.5c-.1,0-.2,0-.3-.1l-2.3-2.3c-.1-.1-.1-.4,0-.5l1-1c0,0,.2-.1.3-.1h0c.1,0,.2,0,.3.1l1,1,2.8-2.8c.2-.1.4-.1.5,0l1,1c0,0,.1.2.1.3s0,.2-.1.3l-4.1,4.1c0,0-.2.1-.3.1h0Z"/>
      <path id="_344908680" class="cls-7" d="M79,34.9c-.2,0-.4-.2-.4-.4v-2.2c0-1.2-1-2.2-2.2-2.2-1.2,0-2.2,1-2.2,2.2v2.2c0,.2-.2.4-.4.4s-.4-.2-.4-.4v-2.2c0-1.6,1.3-3,3-3h0s0,0,0,0c1.6,0,3,1.3,3,3v2.2c0,.2-.2.4-.4.4Z"/>
      <path id="_344908104" class="cls-6" d="M85.9,44.4h-19c-.2,0-.4-.2-.4-.4s.2-.4.4-.4h19c.2,0,.4.2.4.4s-.2.4-.4.4Z"/>
      <path id="_344908248" class="cls-6" d="M85.9,49.7h-19c-.2,0-.4-.2-.4-.4s.2-.4.4-.4h19c.2,0,.4.2.4.4s-.2.4-.4.4Z"/>
      <path id="_344908080" class="cls-6" d="M85.9,54.9h-19c-.2,0-.4-.2-.4-.4s.2-.4.4-.4h19c.2,0,.4.2.4.4s-.2.4-.4.4Z"/>
      <path id="_344908200" class="cls-6" d="M81.1,60.1h-14.2c-.2,0-.4-.2-.4-.4s.2-.4.4-.4h14.2c.2,0,.4.2.4.4s-.2.4-.4.4Z"/>
      <path id="_344907912" class="cls-6" d="M81.1,65.3h-14.2c-.2,0-.4-.2-.4-.4s.2-.4.4-.4h14.2c.2,0,.4.2.4.4s-.2.4-.4.4Z"/>
      <path id="_344908152" class="cls-3" d="M69.7,37.8h13.5v-1.5h0v-1.3h-9.3s0,0,0,0,0,0,0,0h-4.1v2.9Z"/>
      <path id="_344908416" class="cls-1" d="M83.5,38.5h-14.2c-.2,0-.4-.2-.4-.4v-1.5h-6.1s0,35.7,0,35.7h27.2v-1.7c-3.7-.2-6.7-3.3-6.7-7.1s3-6.9,6.7-7.1v-19.8h-6.1v1.5c0,.2-.2.4-.4.4h0ZM66.9,43.7h19c.2,0,.4.2.4.4s-.2.4-.4.4h-19c-.2,0-.4-.2-.4-.4s.2-.4.4-.4ZM66.9,48.9h19c.2,0,.4.2.4.4s-.2.4-.4.4h-19c-.2,0-.4-.2-.4-.4s.2-.4.4-.4ZM66.9,54.1h19c.2,0,.4.2.4.4s-.2.4-.4.4h-19c-.2,0-.4-.2-.4-.4s.2-.4.4-.4ZM66.9,59.3h14.2c.2,0,.4.2.4.4s-.2.4-.4.4h-14.2c-.2,0-.4-.2-.4-.4s.2-.4.4-.4h0ZM66.9,64.5h14.2c.2,0,.4.2.4.4s-.2.4-.4.4h-14.2c-.2,0-.4-.2-.4-.4s.2-.4.4-.4h0Z"/>
    </g>
  </g>
</svg>