<?xml version="1.0" encoding="UTF-8"?>
<svg xmlns="http://www.w3.org/2000/svg" version="1.1" viewBox="0 0 100 100">
  <defs>
    <style>
      .cls-1 {
        fill: #e2e5e8;
      }

      .cls-1, .cls-2, .cls-3, .cls-4, .cls-5, .cls-6, .cls-7 {
        fill-rule: evenodd;
      }

      .cls-2 {
        fill: #c9ebfa;
      }

      .cls-3 {
        fill: #548eb5;
      }

      .cls-4 {
        fill: #83abc9;
      }

      .cls-5 {
        fill: #77dbc7;
      }

      .cls-6 {
        fill: #caedbb;
      }

      .cls-7 {
        fill: #45cdb4;
      }

      .cls-8 {
        fill: #f2c397;
        stroke: #22263e;
        stroke-miterlimit: 10;
        stroke-width: 1.5px;
      }
    </style>
  </defs>
  <!-- Generator: Adobe Illustrator 28.6.0, SVG Export Plug-In . SVG Version: 1.2.0 Build 709)  -->
  <g>
    <g id="Layer_1">
      <path class="cls-2" d="M70.2,52.6H28.2c-1.1,0-2,.9-2,2v26.3h46.1v-26.3c0-1.1-.9-2-2-2h0ZM42.2,61.5h4.6v12.5c0,1.5-1.2,2.7-2.8,2.7h-10.1c-1.5,0-2.7-1.2-2.7-2.7v-12.5h11ZM50.9,57.5c0-.4.4-.8.8-.8h14.1c.4,0,.8.4.8.8v3.8c0,.4-.4.8-.8.8h-14c-.4,0-.8-.4-.8-.8v-3.8h0Z"/>
      <path class="cls-4" d="M72.2,80.9H26.2v3.1c0,1.1.9,2,2,2h42c1.1,0,2-.9,2-2v-3.1h0Z"/>
      <path class="cls-3" d="M56.4,85.9h-14.5l-1.9,6.6h18.2l-1.9-6.6Z"/>
      <path class="cls-4" d="M58.3,92.5h-23.5c-1.2,0-2.2,1-2.2,2.2v2.2h33.2v-2.2c0-1.2-1-2.2-2.2-2.2h-5.3Z"/>
      <path class="cls-6" d="M65.8,56.7h-14.1c-.4,0-.8.4-.8.8v3.8c0,.4.4.8.8.8h14.1c.4,0,.8-.4.8-.8v-3.8c0-.4-.4-.8-.8-.8Z"/>
      <path d="M70.2,51.8H28.2c-1.5,0-2.8,1.3-2.8,2.8v29.3c0,1.5,1.3,2.8,2.8,2.8h12.7l-1.4,5h-4.7c-1.7,0-3,1.4-3,3v2.2c0,.4.4.8.8.8h33.2c.4,0,.8-.4.8-.8v-2.2c0-1.7-1.4-3-3-3h-4.7l-1.4-5h12.8c1.5,0,2.8-1.3,2.8-2.8v-29.3c0-1.5-1.3-2.8-2.9-2.8h0ZM28.2,53.4h42c.7,0,1.2.5,1.2,1.2v25.5H27v-25.5c0-.6.5-1.2,1.2-1.2h0ZM65,94.7v1.4h-31.7v-1.4c0-.8.6-1.4,1.4-1.4h28.7c.8,0,1.5.6,1.5,1.4ZM57.2,91.7h-16.1l1.4-5h13.3l1.4,5ZM70.2,85.1H28.2c-.7,0-1.2-.5-1.2-1.2v-2.2h44.5v2.3c0,.6-.5,1.2-1.2,1.2h0Z"/>
      <path d="M66.6,66.8h-8.7c-.4,0-.8.4-.8.8s.4.8.8.8h8.7c.4,0,.8-.4.8-.8s-.3-.8-.8-.8Z"/>
      <path d="M51.5,68.4h1.8c.4,0,.8-.4.8-.8s-.4-.8-.8-.8h-1.8c-.4,0-.8.4-.8.8s.4.8.8.8Z"/>
      <path d="M63.5,71.3h-12c-.4,0-.8.4-.8.8s.4.8.8.8h12c.4,0,.8-.4.8-.8s-.4-.8-.8-.8Z"/>
      <path d="M54.3,75.9h-2.8c-.4,0-.8.4-.8.8s.4.8.8.8h2.8c.4,0,.8-.4.8-.8s-.4-.8-.8-.8Z"/>
      <path d="M51.7,62.9h14.1c.9,0,1.6-.7,1.6-1.6v-3.8c0-.9-.7-1.6-1.6-1.6h-14.1c-.9,0-1.6.7-1.6,1.6v3.8c0,.9.7,1.6,1.6,1.6h0ZM51.7,57.5s0,0,0,0h14.1v3.8h-14.1v-3.8Z"/>
      <g>
        <rect class="cls-8" x="30.9" y="60.7" width="16.2" height="15.4" rx=".8" ry=".8"/>
        <rect class="cls-8" x="36.7" y="60.7" width="4.5" height="6.4"/>
      </g>
      <g>
        <rect class="cls-8" x="36.3" y="29.8" width="14.1" height="13.4" rx=".7" ry=".7"/>
        <rect class="cls-8" x="41.4" y="29.8" width="3.9" height="5.5"/>
      </g>
      <g>
        <rect class="cls-8" x="22.3" y="29.8" width="14.1" height="13.4" rx=".7" ry=".7"/>
        <rect class="cls-8" x="27.3" y="29.8" width="3.9" height="5.5"/>
      </g>
      <g>
        <rect class="cls-8" x="29.3" y="15.8" width="14.1" height="13.4" rx=".7" ry=".7"/>
        <rect class="cls-8" x="34.3" y="15.8" width="3.9" height="5.5"/>
      </g>
      <path class="cls-7" d="M46.1,71.7c-1.7,0-3.1,1.4-3.1,3s1.4,3,3.1,3,3.1-1.4,3.1-3-1.4-3-3.1-3Z"/>
      <path class="cls-5" d="M62.7,30.9c0,1.4,1.1,2.5,2.5,2.5h2.5v-6.1h-5v3.6Z"/>
      <path d="M46.1,71.2c-1.9,0-3.5,1.6-3.5,3.5s1.6,3.5,3.5,3.5,3.5-1.6,3.5-3.5-1.6-3.5-3.5-3.5ZM46.1,77.3c-1.5,0-2.6-1.2-2.6-2.6s1.2-2.6,2.6-2.6,2.6,1.2,2.6,2.6-1.2,2.6-2.6,2.6Z"/>
      <path class="cls-1" d="M67.8,27.4v13.1h7.2v-13.1c2.5,0,4.5-2,4.5-4.5s-2-4.5-4.5-4.5h-18.1v9h10.9Z"/>
      <path d="M61.6,30.9c0,2,1.7,3.6,3.6,3.6h1.4v5.9c0,.6.5,1.1,1.1,1.1h7.2c.6,0,1.1-.5,1.1-1.1v-12.1c2.6-.6,4.5-2.8,4.5-5.5s-2.5-5.6-5.6-5.6h-18c-.6,0-1.1.5-1.1,1.1v9c0,.6.5,1.1,1.1,1.1h4.7v2.5ZM65.2,32.3c-.8,0-1.4-.6-1.4-1.4v-2.4h2.8v3.8h-1.4ZM58.1,19.5h8.4v2c0,.6.5,1.1,1.1,1.1s1.1-.5,1.1-1.1v-2h3.2v2c0,.6.5,1.1,1.1,1.1s1.1-.5,1.1-1.1v-2h.8c1.9,0,3.3,1.5,3.3,3.3s-1.5,3.3-3.3,3.3-1.1.5-1.1,1.1v12.1h-4.9v-12c0-.6-.5-1.1-1.1-1.1h-9.6v-6.8Z"/>
      <path d="M53,11.3c0,0,.2,0,.3,0,.5,0,1-.3,1.1-.8l1-3.8c.1-.6-.2-1.3-.8-1.4s-1.3.2-1.4.8l-1,3.8c0,.5.3,1.1.8,1.3Z"/>
      <path d="M57.8,12.5c.2,0,.5,0,.7-.2l4-3c.5-.3.6-1.1.2-1.6-.3-.5-1.1-.6-1.6-.2l-4,3c-.5.3-.6,1.1-.2,1.6.3.2.6.4.9.4Z"/>
      <path d="M47,73.5l-1.3,1.5-.5-.4c-.2-.1-.4-.1-.6,0s-.1.4,0,.6l.8.7c.2.1.4.1.6,0l1.5-1.8c.1-.2.1-.4,0-.6-.1-.2-.4-.1-.5,0h0Z"/>
      <path d="M47.8,9.4c.2.4.6.7,1,.7s.3,0,.4,0c.6-.3.8-.9.6-1.5l-2-4.6c-.3-.6-.9-.8-1.5-.6-.6.3-.8.9-.6,1.5l2,4.6Z"/>
    </g>
  </g>
</svg>