<?xml version="1.0" encoding="UTF-8"?>
<svg id="Layer_1" data-name="Layer 1" xmlns="http://www.w3.org/2000/svg" viewBox="0 0 100 100">
  <defs>
    <style>
      .cls-1 {
        fill: #647a8a;
      }

      .cls-2 {
        fill: #fcb36b;
      }

      .cls-3 {
        fill: #f1f2f2;
      }

      .cls-4 {
        fill: #38454e;
      }

      .cls-5 {
        fill: #e5a961;
      }

      .cls-6 {
        fill: #914747;
      }

      .cls-7 {
        fill: #d6914c;
      }

      .cls-8 {
        fill: #d1d3d4;
      }

      .cls-9 {
        fill: #4b5c68;
      }

      .cls-10 {
        fill: #ea9453;
      }
    </style>
  </defs>
  <g id="colour">
    <path class="cls-5" d="m13.62,29.38v29.11l26.68,15.77v-29.11l-26.68-15.77Z"/>
    <path class="cls-7" d="m40.3,45.15l29.11-16.98v29.11l-29.11,16.98v-29.11Z"/>
    <path class="cls-2" d="m26.08,36.76l28.46-16.69-11.82-6.45-29.11,15.77,12.47,7.37Z"/>
    <path class="cls-10" d="m26.08,36.76l28.46-16.69,14.86,8.1-29.11,16.98-14.21-8.39Z"/>
    <path class="cls-1" d="m85.47,83.93l-2.26,1.89c-.97.83-2.44.72-3.27-.25l-6.52-7.41-3.25-3.7c2.31-1.35,4.23-3.28,5.57-5.6l3.34,3.8,6.67,7.58c.95,1.09.83,2.74-.26,3.69,0,0,0,0,0,0h0Z"/>
    <path class="cls-9" d="m79.07,72.65c-1.51,2.19-3.43,4.06-5.65,5.51l-3.25-3.7c2.31-1.35,4.23-3.28,5.57-5.6l3.34,3.8Z"/>
    <circle class="cls-3" cx="62.13" cy="60.92" r="15.77"/>
    <path class="cls-8" d="m77.89,60.92c0,8.71-7.06,15.77-15.77,15.77s-15.77-7.06-15.77-15.77h31.53Z"/>
    <g>
      <path class="cls-1" d="m54.85,54.85h2.43v12.13h-2.43v-12.13Z"/>
      <path class="cls-1" d="m60.92,54.85h2.43v12.13h-2.43v-12.13Z"/>
      <path class="cls-1" d="m66.98,54.85h2.43v12.13h-2.43v-12.13Z"/>
      <path class="cls-1" d="m64.55,54.85h1.21v12.13h-1.21v-12.13Z"/>
      <path class="cls-1" d="m70.62,54.85h1.21v12.13h-1.21v-12.13Z"/>
      <path class="cls-1" d="m52.43,54.85h1.21v12.13h-1.21v-12.13Z"/>
      <path class="cls-1" d="m58.49,54.85h1.21v12.13h-1.21v-12.13Z"/>
    </g>
    <path class="cls-4" d="m54.85,60.92h2.43v6.06h-2.43v-6.06Z"/>
    <path class="cls-4" d="m60.92,60.92h2.43v6.06h-2.43v-6.06Z"/>
    <path class="cls-4" d="m66.98,60.92h2.43v6.06h-2.43v-6.06Z"/>
    <path class="cls-4" d="m64.55,60.92h1.21v6.06h-1.21v-6.06Z"/>
    <path class="cls-4" d="m70.62,60.92h1.21v6.06h-1.21v-6.06Z"/>
    <path class="cls-4" d="m52.43,60.92h1.21v6.06h-1.21v-6.06Z"/>
    <path class="cls-4" d="m58.49,60.92h1.21v6.06h-1.21v-6.06Z"/>
    <path class="cls-1" d="m62.13,77.89c-9.38,0-16.98-7.6-16.98-16.98s7.6-16.98,16.98-16.98,16.98,7.6,16.98,16.98c-.01,9.37-7.61,16.97-16.98,16.98Zm0-31.53c-8.04,0-14.55,6.52-14.55,14.55s6.52,14.55,14.55,14.55,14.55-6.52,14.55-14.55c0-8.03-6.52-14.54-14.55-14.55Z"/>
  </g>
  <path class="cls-6" d="m61.06,23.55c-.99.58-1.97,1.19-2.98,1.75-6.58,3.65-13.17,7.28-19.76,10.92-2.29,1.27-4.58,2.55-6.87,3.83-.05,0-.11,0-.16-.01-.16-.04-.34-.05-.48-.13-1.54-.84-3.07-1.7-4.61-2.54-1.62-.89-3.25-1.76-4.87-2.64-.02-.04-.03-.09-.03-.13,3.43-1.89,6.87-3.76,10.3-5.66,4.17-2.3,8.33-4.61,12.49-6.92,2.35-1.31,4.7-2.63,7.05-3.94,3.3,1.82,6.6,3.65,9.91,5.47Z"/>
  <path class="cls-6" d="m21.35,34.73c1.62.88,3.25,1.76,4.87,2.64,1.54.84,3.07,1.7,4.61,2.54.14.08.32.09.48.13,0,3.51,0,7.02,0,10.71-1.34-.73-2.49-1.36-3.64-1.99-1.81-1-3.59-2.05-5.44-2.98-.78-.39-.92-.95-.92-1.69,0-2.63,0-5.26,0-7.89,0-.49.03-.98.05-1.47Z"/>
</svg>