<?xml version="1.0" encoding="UTF-8"?>
<svg xmlns="http://www.w3.org/2000/svg" version="1.1" viewBox="0 0 100 100">
  <defs>
    <style>
      .cls-1 {
        fill: #8cbafa;
      }

      .cls-2, .cls-3 {
        fill: #fff;
      }

      .cls-4 {
        fill: none;
        stroke-linecap: round;
      }

      .cls-4, .cls-5 {
        stroke: #22263e;
        stroke-miterlimit: 10;
        stroke-width: 1.5px;
      }

      .cls-3, .cls-6, .cls-7, .cls-8 {
        fill-rule: evenodd;
      }

      .cls-6 {
        fill: #c9ebfa;
      }

      .cls-9 {
        fill: #c5c4cc;
      }

      .cls-7 {
        fill: #fff2b1;
      }

      .cls-8, .cls-5 {
        fill: #f2c397;
      }
    </style>
  </defs>
  <!-- Generator: Adobe Illustrator 28.6.0, SVG Export Plug-In . SVG Version: 1.2.0 Build 709)  -->
  <g>
    <g id="Layer_1">
      <rect class="cls-2" x="14.7" y="37.8" width="59" height="38.8"/>
      <polygon class="cls-9" points="74 33.3 16.8 33.3 16.8 76.6 9.8 76.6 9.8 29.2 45.6 14.4 81.2 29.2 81.3 77.6 74.1 77.6 74 33.3"/>
      <rect class="cls-1" x="17.3" y="33.3" width="56.7" height="7.7"/>
      <g>
        <line class="cls-4" x1="4.2" y1="76.6" x2="29.5" y2="76.6"/>
        <polyline class="cls-4" points="81.2 76.6 81.2 29.2 45.6 14.4 9.8 29.2 9.8 76.6"/>
        <polyline class="cls-4" points="84.7 76.6 17.3 76.6 17.3 33.3 74 33.3 74.6 76.7"/>
        <line class="cls-4" x1="17.3" y1="41" x2="74" y2="41"/>
      </g>
      <g>
        <rect class="cls-5" x="23.8" y="61.6" width="17.4" height="15" rx=".8" ry=".8"/>
        <rect class="cls-5" x="30" y="61.6" width="4.9" height="6.2"/>
      </g>
      <g>
        <rect class="cls-5" x="41.4" y="61.6" width="17.4" height="15" rx=".8" ry=".8"/>
        <rect class="cls-5" x="47.6" y="61.6" width="4.9" height="6.2"/>
      </g>
      <g>
        <rect class="cls-5" x="32.7" y="46" width="17.4" height="15" rx=".8" ry=".8"/>
        <rect class="cls-5" x="39" y="46" width="4.9" height="6.2"/>
      </g>
      <g>
        <path class="cls-3" d="M69.4,41.5h-9.1c-1.2,0-2.2,1-2.2,2.2v41.9c0,1.2,1,2.2,2.2,2.2h33.2c1.2,0,2.2-1,2.2-2.2v-41.9c0-1.2-1-2.2-2.2-2.2h-9.1v1.8c0,1.1-1,2.1-2.1,2.1h-10.7c-1.1,0-2.1-1-2.1-2.1v-1.8h-.1ZM66.6,66.6v-14.6c0-1,.8-1.9,1.9-1.9h16.7c1,0,1.9.8,1.9,1.9v14.6c0,1-.8,1.9-1.9,1.9h-16.7c-1,0-1.9-.8-1.9-1.9h0Z"/>
        <path class="cls-8" d="M73.5,50.1h-5.1c-1,0-1.9.8-1.9,1.9v14.6c0,1,.8,1.9,1.9,1.9h16.7c1,0,1.9-.8,1.9-1.9v-14.6c0-1-.8-1.9-1.9-1.9h-5.1v8.6l-3.3-1.7-3.3,1.7v-8.6h0Z"/>
        <path class="cls-7" d="M80.1,50.1h-6.6v8.6l3.3-1.8,3.3,1.8s0-8.6,0-8.6Z"/>
        <path class="cls-6" d="M76,35.4c-1.4,0-2.5,1.1-2.5,2.5v1.4h-4.1v3.9c0,1.1,1,2.1,2.1,2.1h10.7c1.1,0,2.1-1,2.1-2.1v-3.9h-4.1v-1.4c0-1.4-1.1-2.5-2.5-2.5h-1.7Z"/>
        <path d="M93.4,40.6h-8.2v-1.3c0-.5-.4-.9-.9-.9h-3.2v-.5c0-1.9-1.6-3.5-3.4-3.5h-1.6c-1.9,0-3.4,1.6-3.4,3.4v.5h-3.2c-.5,0-.9.4-.9.9v1.3h-8.3c-1.8,0-3.1,1.4-3.1,3.1v41.9c0,1.8,1.4,3.1,3.1,3.1h33.2c1.8,0,3.1-1.4,3.1-3.1v-41.9c0-1.8-1.4-3.1-3.1-3.1h-.1ZM70.3,40.3h3.2c.5,0,.9-.4.9-.9v-1.4c0-.9.7-1.6,1.6-1.6h1.6c.9,0,1.6.7,1.6,1.6v1.4c0,.5.4.9.9.9h3.2v3c0,.7-.5,1.2-1.2,1.2h-10.7c-.7,0-1.2-.5-1.2-1.2v-3h0ZM94.7,85.7c0,.7-.6,1.3-1.3,1.3h-33.2c-.7,0-1.3-.6-1.3-1.3v-41.9c0-.7.6-1.3,1.3-1.3h8.2v.8c0,1.6,1.3,3,3,3h10.7c1.6,0,3-1.3,3-3v-.8h8.2c.7,0,1.3.6,1.3,1.3v41.9h.1Z"/>
        <path d="M68.5,69.4h16.7c1.5,0,2.8-1.3,2.8-2.8v-14.6c0-1.5-1.3-2.8-2.8-2.8h-16.7c-1.5,0-2.8,1.3-2.8,2.8v14.6c0,1.5,1.2,2.8,2.8,2.8ZM74.4,51h4.8v6.2l-2-1c-.2,0-.6,0-.8,0l-2,1v-6.2h0ZM67.5,52c0-.5.4-1,1-1h4.2v7.7c0,.3.2.6.4.8,0,0,.3,0,.5,0s.3,0,.4,0l2.9-1.5,2.9,1.5c.3,0,.6,0,.9,0,.2-.2.4-.5.4-.8v-7.7h4.2c.5,0,1,.4,1,1v14.6c0,.5-.4,1-1,1h-16.8c-.5,0-1-.4-1-1v-14.6Z"/>
        <path d="M89.3,72.8h-14.1c-.5,0-.9.4-.9.9s.4.9.9.9h14.1c.5,0,.9-.4.9-.9s-.4-.9-.9-.9h0Z"/>
        <path d="M67.7,72.8h-3.3c-.5,0-.9.4-.9.9s.4.9.9.9h3.3c.5,0,.9-.4.9-.9s-.4-.9-.9-.9Z"/>
        <path d="M67.7,77.6h-3.3c-.5,0-.9.4-.9.9s.4.9.9.9h3.3c.5,0,.9-.4.9-.9s-.4-.9-.9-.9Z"/>
        <path d="M89.3,77.6h-14.1c-.5,0-.9.4-.9.9s.4.9.9.9h14.1c.5,0,.9-.4.9-.9s-.4-.9-.9-.9h0Z"/>
        <path d="M67.7,82.3h-3.3c-.5,0-.9.4-.9.9s.4.9.9.9h3.3c.5,0,.9-.4.9-.9s-.4-.9-.9-.9Z"/>
        <path d="M89.3,82.3h-14.1c-.5,0-.9.4-.9.9s.4.9.9.9h14.1c.5,0,.9-.4.9-.9s-.4-.9-.9-.9h0Z"/>
      </g>
    </g>
  </g>
</svg>