<?xml version="1.0" encoding="UTF-8"?>
<svg id="Layer_1" data-name="Layer 1" xmlns="http://www.w3.org/2000/svg" viewBox="0 0 100 100">
  <defs>
    <style>
      .cls-1 {
        fill: #5a6263;
      }

      .cls-1, .cls-2, .cls-3, .cls-4, .cls-5, .cls-6, .cls-7, .cls-8, .cls-9 {
        stroke: #22263e;
        stroke-miterlimit: 10;
        stroke-width: 2px;
      }

      .cls-2 {
        fill: #b8f4ef;
      }

      .cls-3 {
        fill: #8cbafa;
      }

      .cls-4 {
        fill: #758486;
      }

      .cls-5 {
        fill: #c1762b;
      }

      .cls-6 {
        fill: #f2c397;
      }

      .cls-7 {
        fill: #e88d69;
      }

      .cls-7, .cls-8 {
        stroke-linecap: round;
      }

      .cls-8 {
        fill: #bcbec0;
      }

      .cls-9 {
        fill: #c38d69;
      }
    </style>
  </defs>
  <g>
    <g>
      <rect class="cls-2" x="11.48" y="12.75" width="38.35" height="72.19" rx="1.36" ry="1.36"/>
      <path class="cls-3" d="M12.67,12.75H48.64c.66,0,1.19,.53,1.19,1.19V31.07H11.48V13.94c0-.66,.53-1.19,1.19-1.19Z"/>
      <rect class="cls-8" x="11.48" y="31.06" width="38.35" height="22.64"/>
      <line class="cls-2" x1="16.36" y1="84.94" x2="16.36" y2="90.05"/>
      <line class="cls-2" x1="44.77" y1="84.94" x2="44.77" y2="90.05"/>
    </g>
    <g>
      <rect class="cls-6" x="11.48" y="12.75" width="19.17" height="18.3" rx=".81" ry=".81"/>
      <rect class="cls-6" x="18.37" y="12.75" width="5.39" height="7.57"/>
    </g>
    <g>
      <rect class="cls-6" x="30.65" y="12.75" width="19.17" height="18.3" rx=".81" ry=".81"/>
      <rect class="cls-6" x="37.55" y="12.75" width="5.39" height="7.57"/>
    </g>
  </g>
  <path class="cls-6" d="M79.15,28.26l-.65-2.01c-6.8,.98-9.61-5.98-9.61-5.98l-17.63-6.05c-.44-.15-.91,.09-1.04,.53l-7.51,24.73c-.13,.42,.1,.87,.52,1.01l6.24,2.08s4.12-3.45,6.11-2.28,12,.79,12,.79l6.45-7.37,5.13-5.46Z"/>
  <polygon class="cls-9" points="59.56 17.08 57.13 24.74 65.63 27.5 68.25 20.09 59.56 17.08"/>
  <path class="cls-7" d="M78.36,27.24h0c3.82,0,6.92,3.1,6.92,6.92v25.9h-13.84v-25.9c0-3.82,3.1-6.92,6.92-6.92Z" transform="translate(17.48 -22.23) rotate(18.14)"/>
  <circle class="cls-5" cx="77.04" cy="18.1" r="8.15"/>
  <path class="cls-4" d="M67.98,50.56l-10.2,18.46v15.48c0,3.07,2.49,5.55,5.55,5.55h0c3.07,0,5.55-2.49,5.55-5.55v-11.63l1.54-.35-2.45-21.97Z"/>
  <path class="cls-9" d="M69.55,48.45l9.89-9.64c1.8-1.76,1.78-4.66-.05-6.39h0c-1.83-1.72-4.72-1.59-6.37,.3l-6.45,7.37c-.09,.1-.21,.15-.34,.14l-11.65-.93c-2.58-.21-4.78,1.83-4.78,4.41v.43c0,2.44,1.98,4.43,4.43,4.43h15.04c.11,0,.21-.04,.29-.12Z"/>
  <path class="cls-1" d="M79.15,61.71l8.69,17.11c1.54,3.04,.36,6.75-2.65,8.33h0c-3.05,1.6-6.81,.43-8.41-2.62l-6.7-12.76-1.18-13.97c-.05-.48-.34-.34,0,0l10.26,3.9Z"/>
</svg>