<?xml version="1.0" encoding="UTF-8"?>
<svg id="Layer_1" data-name="Layer 1" xmlns="http://www.w3.org/2000/svg" viewBox="0 0 512 512">
  <defs>
    <style>
      .cls-1 {
        fill: #fff;
      }

      .cls-2 {
        fill: #c13536;
      }
    </style>
  </defs>
  <circle class="cls-2" cx="256" cy="256" r="250"/>
  <g>
    <path class="cls-1" d="m195.23,220.81h26.56v78.79c0,7.99,6.48,14.47,14.47,14.47h39.49c7.99,0,14.47-6.47,14.47-14.47v-78.79h26.55c4.4,0,8.35-2.65,10.04-6.71,1.67-4.05.74-8.73-2.37-11.84l-60.76-60.77c-4.24-4.24-11.12-4.24-15.37,0l-60.75,60.77c-3.11,3.11-4.04,7.78-2.36,11.84,1.69,4.06,5.64,6.71,10.03,6.71Z"/>
    <path class="cls-1" d="m374.17,250.34c-7.2,0-13.04,5.84-13.04,13.05v54.56c0,16.35-13.31,29.64-29.65,29.64h-150.96c-16.35,0-29.64-13.3-29.64-29.64v-54.56c0-7.21-5.85-13.05-13.05-13.05-7.21,0-13.05,5.84-13.05,13.05v54.56c0,30.73,25,55.74,55.74,55.74h150.96c30.74,0,55.74-25.01,55.74-55.74v-54.56c0-7.21-5.84-13.05-13.05-13.05Z"/>
  </g>
</svg>