<?xml version="1.0" encoding="UTF-8"?>
<svg id="Layer_1" data-name="Layer 1" xmlns="http://www.w3.org/2000/svg" viewBox="0 0 100 100">
  <defs>
    <style>
      .cls-1 {
        fill: #8cbafa;
      }

      .cls-1, .cls-2, .cls-3, .cls-4, .cls-5, .cls-6 {
        stroke: #22263e;
        stroke-miterlimit: 10;
        stroke-width: 2px;
      }

      .cls-2 {
        fill: none;
      }

      .cls-2, .cls-5 {
        stroke-linecap: round;
      }

      .cls-3 {
        fill: #f2c397;
      }

      .cls-7 {
        fill: #eec0a7;
      }

      .cls-4 {
        fill: #b1da7a;
      }

      .cls-5 {
        fill: #e8d5b2;
      }

      .cls-6 {
        fill: #c38d69;
      }
    </style>
  </defs>
  <path class="cls-3" d="M83.88,69.95V31.02c0-.84-.66-1.53-1.48-1.53H33.37c-.82,0-1.48,.68-1.48,1.53v31.52l18.02,6.99h13.31s4.95,.88,4.72,5.38l15.95-4.96Z"/>
  <rect class="cls-6" x="51.89" y="27.99" width="11.98" height="13.99" rx=".55" ry=".55"/>
  <g>
    <line class="cls-5" x1="66.29" y1="51.97" x2="74.93" y2="51.97"/>
    <g>
      <line class="cls-5" x1="71" y1="47.6" x2="74.9" y2="47.6"/>
      <line class="cls-5" x1="66.29" y1="47.6" x2="67.34" y2="47.6"/>
    </g>
  </g>
  <path class="cls-7" d="M20.95,80.25h4.4c1.79,0,3.57,.31,5.26,.93l20.88,7.57c2.3,.83,4.82,.65,6.99-.5l34.17-18.14c2.27-1.21,3.28-4.01,2.32-6.46h0c-.96-2.44-3.56-3.72-5.99-2.96l-19.67,6.15s2.32-7.42-19.87-5.65l-16.84-6.07h-11.92l.28,25.14"/>
  <path class="cls-2" d="M20.82,55.11h11.92c.87,0,1.74,.16,2.56,.48l14.29,5.59c.7,.27,1.44,.42,2.19,.42h12.52c2.69,0,4.88,2.26,4.88,5.05h0c0,2.79-2.18,5.05-4.88,5.05h-16.35s-4.7-.29-4.84,3.89"/>
  <path class="cls-2" d="M69.17,67.08l19.67-6.15c2.44-.76,5.03,.52,5.99,2.96h0c.96,2.45-.04,5.26-2.32,6.46l-34.17,18.14c-2.17,1.15-4.69,1.33-6.99,.5l-20.88-7.57c-1.69-.61-3.47-.93-5.26-.93h-4.4"/>
  <rect class="cls-1" x="4.66" y="50.88" width="16.16" height="34.26" rx=".98" ry=".98"/>
  <line class="cls-5" x1="11.91" y1="79.24" x2="15.81" y2="79.24"/>
  <g>
    <path class="cls-2" d="M47.24,32.63c-.08,.6-.07,.7-.21,1.27"/>
    <path class="cls-2" d="M47.38,27.44c0-9.36-7.59-16.95-16.95-16.95S13.57,18,13.49,27.28c0,.09-.07,.16-.16,.16h-4.17c-.19,0-.31,.22-.21,.38l6.96,10.77c.09,.14,.29,.13,.37,0l2.6-4.08"/>
    <circle class="cls-4" cx="30.44" cy="27.44" r="10.75"/>
    <line class="cls-2" x1="16.32" y1="27.44" x2="17.02" y2="27.44"/>
    <g>
      <path class="cls-2" d="M33.28,25.39s.01-2.55-3.38-2.26c0,0-2.05,.15-2.22,1.9s1.71,2.18,2.22,2.31l1.09,.24c3.57,.74,2.29,3.18,2.29,3.18,0,0-.74,1.62-3.36,1.32s-2.55-2.56-2.55-2.56"/>
      <line class="cls-2" x1="30.44" y1="21.95" x2="30.44" y2="33.25"/>
    </g>
  </g>
</svg>