<?xml version="1.0" encoding="UTF-8"?>
<svg id="svg8" xmlns="http://www.w3.org/2000/svg" viewBox="0 0 512 512">
  <g id="layer1">
    <path id="path52" d="m255.75,26c-12.7.12-22.9,10.57-22.78,23.33,0,.01,0,.03,0,.04v184.88c0,12.77,10.32,23.12,23.04,23.11,12.71,0,23.01-10.35,23.01-23.11V49.38c.15-12.76-10.03-23.23-22.73-23.37-.18,0-.36,0-.54,0Zm134.19,46.34c-.75-.02-1.5,0-2.25.05-12.66,1.08-22.05,12.26-20.98,24.98.52,6.17,3.48,11.86,8.22,15.82,39.85,33.99,65.05,84.57,65.05,141.37,0,102.57-82,185.24-183.88,185.24s-184.06-82.67-184.06-185.24c0-56.47,24.89-106.72,64.33-140.7,9.66-8.29,10.81-22.87,2.56-32.58s-22.77-10.86-32.44-2.57C57.27,121.13,26,184.35,26,254.56c0,127.5,103.32,231.44,230.11,231.44s229.89-103.94,229.89-231.44c0-70.61-31.57-134.1-81.32-176.53-4.09-3.58-9.31-5.59-14.74-5.69h0Z" vector-effect="none"/>
  </g>
</svg>