<?xml version="1.0" encoding="UTF-8"?>
<svg id="Layer_1" data-name="Layer 1" xmlns="http://www.w3.org/2000/svg" viewBox="0 0 100 100">
  <defs>
    <style>
      .cls-1 {
        fill: #b8f4ef;
      }

      .cls-1, .cls-2, .cls-3, .cls-4, .cls-5, .cls-6 {
        stroke: #22263e;
        stroke-miterlimit: 10;
        stroke-width: 2px;
      }

      .cls-2, .cls-7 {
        fill: #8cbafa;
      }

      .cls-3 {
        fill: none;
      }

      .cls-3, .cls-6 {
        stroke-linecap: round;
      }

      .cls-4 {
        fill: #f2c397;
      }

      .cls-5 {
        fill: #b1da7a;
      }

      .cls-6 {
        fill: #bcbec0;
      }
    </style>
  </defs>
  <path class="cls-1" d="M67.16,68.16v14.75c0,1.99-1.61,3.61-3.61,3.61H14.91c-1.99,0-3.61-1.61-3.61-3.61V17.09c0-1.99,1.61-3.61,3.61-3.61H49.6v13.69c0,1.85,1.5,3.35,3.35,3.35h14.21s0,8.34,0,8.34"/>
  <line class="cls-3" x1="20.83" y1="63.96" x2="41.37" y2="63.96"/>
  <line class="cls-3" x1="20.83" y1="73.93" x2="39.57" y2="73.93"/>
  <line class="cls-3" x1="20.83" y1="54" x2="49.84" y2="54"/>
  <polygon class="cls-4" points="74.88 36.58 49.89 61.52 47.57 73.04 59.06 70.86 84.11 45.66 74.88 36.58"/>
  <path class="cls-2" d="M76.14,35.22l9.17,9.17,2.45-2.51c1.27-1.3,1.24-3.38-.05-4.64l-4.58-4.47c-1.3-1.27-3.37-1.24-4.64,.05l-2.35,2.4Z"/>
  <polygon class="cls-7" points="51.09 64.8 55.67 69.66 49.78 70.97 51.09 64.8"/>
  <line class="cls-3" x1="54.25" y1="61.3" x2="75.1" y2="40.56"/>
  <path class="cls-6" d="M66.97,25.7h-10.76c-1,0-1.82-.78-1.82-1.73V13.97c0-.05,.06-.08,.1-.04l12.52,11.67s.01,.1-.04,.1Z"/>
  <g>
    <circle class="cls-5" cx="33.03" cy="36.28" r="8.98"/>
    <g>
      <path class="cls-2" d="M39.23,42.76c-1.12-2.3-3.48-3.89-6.21-3.89s-5.09,1.59-6.21,3.89c1.61,1.54,3.8,2.49,6.21,2.49s4.59-.95,6.21-2.49Z"/>
      <circle class="cls-4" cx="33.03" cy="35.2" r="3.58"/>
    </g>
  </g>
</svg>