<?xml version="1.0" encoding="UTF-8"?>
<svg id="Layer_1" data-name="Layer 1" xmlns="http://www.w3.org/2000/svg" viewBox="0 0 100 100">
  <defs>
    <style>
      .cls-1 {
        fill: #b8f4ef;
      }

      .cls-1, .cls-2, .cls-3, .cls-4, .cls-5, .cls-6, .cls-7, .cls-8 {
        stroke: #22263e;
        stroke-miterlimit: 10;
        stroke-width: 2px;
      }

      .cls-2 {
        fill: #8cbafa;
      }

      .cls-3 {
        fill: #c1762b;
      }

      .cls-4 {
        fill: #f2c397;
      }

      .cls-5 {
        fill: #b1da7a;
      }

      .cls-6 {
        fill: #f9aa4b;
      }

      .cls-7 {
        fill: #3dd0f2;
      }

      .cls-8 {
        fill: #fedf82;
      }
    </style>
  </defs>
  <path class="cls-4" d="M77.75,44.55h4.33c4.1,0,7.42,3.32,7.42,7.42v34.16c0,.42-.34,.76-.76,.76H11.26c-.42,0-.76-.34-.76-.76V51.97c0-4.1,3.32-7.42,7.42-7.42h3.31"/>
  <circle class="cls-5" cx="77.34" cy="75.71" r="3.44"/>
  <rect class="cls-1" x="21.07" y="13.11" width="56.94" height="51.94" rx=".66" ry=".66"/>
  <rect class="cls-2" x="33.63" y="26.44" width="12.22" height="12.22" rx="1.02" ry="1.02"/>
  <rect class="cls-7" x="49.31" y="44.54" width="6.11" height="9.61" rx="1.02" ry="1.02"/>
  <rect class="cls-8" x="58.91" y="44.54" width="6.11" height="9.61" rx="1.02" ry="1.02"/>
  <rect class="cls-2" x="42.79" y="44.54" width="3.05" height="9.61" rx="1.02" ry="1.02"/>
  <rect class="cls-3" x="33.63" y="44.54" width="6.11" height="9.61" rx="1.02" ry="1.02"/>
  <rect class="cls-6" x="52.36" y="29.06" width="12.22" height="6.11" rx="1.02" ry="1.02"/>
</svg>