<?xml version="1.0" encoding="UTF-8"?>
<svg id="Layer_1" data-name="Layer 1" xmlns="http://www.w3.org/2000/svg" viewBox="0 0 100 100">
  <defs>
    <style>
      .cls-1 {
        fill: #fff;
      }

      .cls-2 {
        fill: none;
        stroke: #22263e;
        stroke-linecap: round;
        stroke-miterlimit: 10;
        stroke-width: 2px;
      }

      .cls-3 {
        fill: #3dd0f2;
      }

      .cls-4 {
        fill: #22263e;
      }

      .cls-5 {
        fill: #f48c6c;
      }
    </style>
  </defs>
  <circle class="cls-1" cx="39.84" cy="40.11" r="24.87"/>
  <g>
    <rect class="cls-5" x="60.08" y="59.66" width="8" height="7.15" transform="translate(-25.95 63.83) rotate(-45)"/>
    <rect class="cls-2" x="60.08" y="59.66" width="8" height="7.15" transform="translate(-25.95 63.83) rotate(-45)"/>
    <path class="cls-5" d="M39.84,8.47c-17.34,0-31.39,14.05-31.39,31.39s14.05,31.39,31.39,31.39,31.39-14.05,31.39-31.39-14.05-31.39-31.39-31.39Zm0,56.26c-13.73,0-24.87-11.13-24.87-24.87S26.11,14.99,39.84,14.99s24.87,11.13,24.87,24.87-11.13,24.87-24.87,24.87Z"/>
    <circle class="cls-2" cx="40.1" cy="39.86" r="31.39"/>
    <circle class="cls-2" cx="39.84" cy="39.91" r="24.87"/>
    <path class="cls-2" d="M32.11,56.31c-2.51-1.24-4.7-3.04-6.41-5.23"/>
    <path class="cls-2" d="M54.27,51.78c-3.38,3.93-8.4,6.43-14,6.43-1.46,0-2.88-.17-4.24-.49"/>
    <path class="cls-2" d="M48.67,23.32c2.24,1.15,4.21,2.74,5.8,4.65"/>
    <path class="cls-2" d="M25.97,28.09c3.38-4.14,8.53-6.79,14.3-6.79,1.51,0,2.98,.18,4.38,.52"/>
    <g>
      <rect class="cls-4" x="34.61" y="34.09" width="5.45" height="13.46" rx=".89" ry=".89"/>
      <rect class="cls-4" x="25.43" y="34.1" width="3.62" height="13.46" rx=".89" ry=".89"/>
      <rect class="cls-4" x="47.47" y="34.09" width="3.62" height="13.46" rx=".89" ry=".89"/>
      <rect class="cls-4" x="30.95" y="34.1" width="1.78" height="13.47" rx=".89" ry=".89"/>
      <rect class="cls-4" x="41.96" y="34.1" width="1.79" height="13.47" rx=".89" ry=".89"/>
      <rect class="cls-4" x="52.98" y="34.09" width="1.79" height="13.47" rx=".89" ry=".89"/>
    </g>
    <path class="cls-3" d="M71.55,59.38h10.85c.68,0,1.23,.55,1.23,1.23v27.25c0,3.68-2.98,6.66-6.66,6.66h0c-3.68,0-6.66-2.98-6.66-6.66v-27.25c0-.68,.55-1.23,1.23-1.23Z" transform="translate(-31.87 76.97) rotate(-45)"/>
    <path class="cls-2" d="M71.75,59.59h10.85c.68,0,1.23,.55,1.23,1.23v27.25c0,3.68-2.98,6.66-6.66,6.66h0c-3.68,0-6.66-2.98-6.66-6.66v-27.25c0-.68,.55-1.23,1.23-1.23Z" transform="translate(-31.95 77.17) rotate(-45)"/>
  </g>
</svg>