<?xml version="1.0" encoding="UTF-8"?>
<svg id="Layer_1" data-name="Layer 1" xmlns="http://www.w3.org/2000/svg" viewBox="0 0 100 100">
  <defs>
    <style>
      .cls-1 {
        fill: #8cbafa;
      }

      .cls-1, .cls-2, .cls-3, .cls-4, .cls-5, .cls-6 {
        stroke: #22263e;
        stroke-miterlimit: 10;
        stroke-width: 2px;
      }

      .cls-2 {
        fill: none;
      }

      .cls-2, .cls-5 {
        stroke-linecap: round;
      }

      .cls-3 {
        fill: #f2c397;
      }

      .cls-7 {
        fill: #eec0a7;
      }

      .cls-4 {
        fill: #b1da7a;
      }

      .cls-5 {
        fill: #e8d5b2;
      }

      .cls-6 {
        fill: #c38d69;
      }
    </style>
  </defs>
  <g>
    <path class="cls-3" d="M84.88,60V21.07c0-.84-.66-1.53-1.48-1.53H34.37c-.82,0-1.48,.68-1.48,1.53v31.52l18.02,6.99h13.31s4.95,.88,4.72,5.38l15.95-4.96Z"/>
    <rect class="cls-6" x="52.89" y="18.03" width="11.98" height="13.99" rx=".55" ry=".55"/>
    <g>
      <line class="cls-5" x1="67.29" y1="51.02" x2="75.93" y2="51.02"/>
      <g>
        <line class="cls-5" x1="72" y1="46.65" x2="75.9" y2="46.65"/>
        <line class="cls-5" x1="67.29" y1="46.65" x2="68.34" y2="46.65"/>
      </g>
    </g>
    <path class="cls-7" d="M20.95,78.29h4.4c1.79,0,3.57,.31,5.26,.93l20.88,7.57c2.3,.83,4.82,.65,6.99-.5l34.17-18.14c2.27-1.21,3.28-4.01,2.32-6.46h0c-.96-2.44-3.56-3.72-5.99-2.96l-19.67,6.15s2.32-7.42-19.87-5.65l-16.84-6.07h-11.92l.28,25.14"/>
    <path class="cls-2" d="M20.82,53.16h11.92c.87,0,1.74,.16,2.56,.48l14.29,5.59c.7,.27,1.44,.42,2.19,.42h12.52c2.69,0,4.88,2.26,4.88,5.05h0c0,2.79-2.18,5.05-4.88,5.05h-16.35s-4.7-.29-4.84,3.89"/>
    <path class="cls-2" d="M69.17,65.12l19.67-6.15c2.44-.76,5.03,.52,5.99,2.96h0c.96,2.45-.04,5.26-2.32,6.46l-34.17,18.14c-2.17,1.15-4.69,1.33-6.99,.5l-20.88-7.57c-1.69-.61-3.47-.93-5.26-.93h-4.4"/>
    <rect class="cls-1" x="4.66" y="48.92" width="16.16" height="34.26" rx=".98" ry=".98"/>
    <line class="cls-5" x1="11.91" y1="77.28" x2="15.81" y2="77.28"/>
  </g>
  <g>
    <ellipse class="cls-4" cx="83.09" cy="23.68" rx="10.85" ry="11.23"/>
    <polyline class="cls-2" points="79.02 23.14 82.72 26.68 87.98 19.94"/>
  </g>
</svg>