<?xml version="1.0" encoding="UTF-8"?>
<svg id="Layer_1" data-name="Layer 1" xmlns="http://www.w3.org/2000/svg" viewBox="0 0 100 100">
  <defs>
    <style>
      .cls-1 {
        fill: #c38d69;
      }

      .cls-2 {
        fill: #8cbafa;
      }

      .cls-2, .cls-3 {
        stroke: #22263e;
        stroke-miterlimit: 10;
        stroke-width: 2px;
      }

      .cls-3 {
        fill: none;
        stroke-linecap: round;
      }

      .cls-4 {
        fill: #f2c397;
      }

      .cls-5 {
        fill: #c1762b;
      }
    </style>
  </defs>
  <g>
    <polygon class="cls-1" points="52.62 9.48 15.46 30.15 52.67 50.08 89.89 30.15 52.62 9.48"/>
    <polygon class="cls-4" points="89.89 30.15 90.83 70.03 52.62 89.52 15.46 69.76 15.46 30.15 52.67 50.08 89.89 30.15"/>
    <path class="cls-3" d="M88.94,71.03l-34.75,18.66c-.98,.53-2.14,.53-3.12,0l-34.66-18.66c-1.16-.62-1.89-1.89-1.89-3.26V32.39c0-1.38,.73-2.64,1.89-3.26L51.11,10.47c.98-.53,2.14-.53,3.12,0l34.71,18.66c1.16,.62,1.89,1.89,1.89,3.26v35.37c0,1.38-.73,2.64-1.89,3.27Z"/>
    <polyline class="cls-3" points="15.46 30.15 52.67 50.08 89.89 30.15"/>
    <line class="cls-3" x1="52.67" y1="50.08" x2="52.62" y2="90.52"/>
    <path class="cls-5" d="M65.32,58.74v-14.02L27.49,24.42l13.14-7.07,38.16,20.32v17.73c0,.35-.37,.56-.64,.37l-6.19-4.29c-.22-.15-.52-.1-.68,.12l-5.33,7.36c-.21,.28-.64,.13-.64-.23Z"/>
    <path class="cls-3" d="M27.16,23.35l37.83,20.3v15.13s.06,.07,.09,.03l6.17-8.66s.07-.05,.11-.02l7,5.09s.11,0,.11-.06v-18.54L40.3,16.28"/>
  </g>
  <circle class="cls-2" cx="22.53" cy="68.77" r="13.36"/>
  <polyline class="cls-3" points="17.51 68.12 22.07 72.34 28.55 64.33"/>
</svg>