<?xml version="1.0" encoding="UTF-8"?>
<svg id="Layer_1" data-name="Layer 1" xmlns="http://www.w3.org/2000/svg" viewBox="0 0 100 100">
  <defs>
    <style>
      .cls-1 {
        fill: #c38d69;
      }

      .cls-2 {
        fill: #fff;
      }

      .cls-3, .cls-4, .cls-5 {
        stroke: #22263e;
        stroke-miterlimit: 10;
        stroke-width: 2px;
      }

      .cls-3, .cls-5 {
        fill: #8cbafa;
      }

      .cls-4 {
        fill: none;
      }

      .cls-4, .cls-5 {
        stroke-linecap: round;
      }

      .cls-6 {
        fill: #f2c397;
      }

      .cls-7 {
        fill: #22263e;
      }
    </style>
  </defs>
  <polygon class="cls-2" points="19.14 41.52 48.93 56.91 79.79 41.71 50.55 25.83 19.14 41.52"/>
  <polygon class="cls-1" points="9.37 31.75 19.62 41.76 53.14 23.54 45.71 14.53 9.37 31.75"/>
  <polygon class="cls-1" points="90.27 31.75 80.02 41.76 46.5 23.54 53.93 14.53 90.27 31.75"/>
  <polygon class="cls-6" points="18.66 54.16 18.66 75.12 49.63 90.21 48.93 56.91 18.74 41.86 9.92 49.55 18.66 54.16"/>
  <polygon class="cls-6" points="49.99 56.12 49.63 90.21 80.28 75.43 80.69 54.13 88.74 50.4 78.89 41.81 49.99 56.12"/>
  <g>
    <path class="cls-4" d="M49.63,57.9v32.31s-.04,.05-.07,.04l-30.51-14.55c-.24-.12-.39-.34-.39-.59v-19.15c0-.51,.61-.83,1.11-.58l19.45,9.55c.29,.14,.66,.1,.89-.11l8.25-7.39c.47-.42,1.28-.13,1.28,.47Z"/>
    <path class="cls-4" d="M19.62,41.76l29.14,14.11c.44,.21,.52,.74,.17,1.05l-8.82,7.91c-.24,.21-.6,.26-.89,.11l-29.14-14.33c-.44-.22-.52-.74-.16-1.06l8.83-7.69c.23-.2,.59-.25,.88-.11Z"/>
    <path class="cls-4" d="M49.99,56.12l28.23-13.49c.51-.24,.53-.89,.03-1.16l-28.24-14.85c-.23-.12-.51-.12-.74,0l-28.93,14.31c-.51,.25-.51,.91,0,1.16l28.95,14.02c.22,.11,.49,.11,.71,0Z"/>
    <path class="cls-4" d="M79.38,42.07l9.36,8.32c.35,.32,.27,.85-.18,1.06l-12.95,6.17"/>
    <path class="cls-4" d="M80.67,55.21v19.64c0,.24-.15,.47-.39,.58l-30.58,14.82s-.07,0-.07-.04V57.91c0-.59,.81-.89,1.28-.47l8.18,7.38c.23,.21,.59,.26,.89,.12l8.92-4.28"/>
    <path class="cls-4" d="M60.9,17.55l-10.35,8.28c-.37,.3-.32,.84,.12,1.06l28.22,14.92c.29,.15,.66,.11,.91-.1l11-9.61c.36-.32,.27-.85-.17-1.06l-28.87-13.58c-.28-.13-.62-.09-.85,.09Z"/>
    <path class="cls-4" d="M19.14,41.52l-9.94-8.71c-.36-.31-.27-.84,.16-1.05l12.39-6.08"/>
    <path class="cls-4" d="M49.79,26.43l-11.39-8.52c-.24-.18-.58-.21-.85-.07l-8.79,4.44"/>
  </g>
  <line class="cls-5" x1="43.61" y1="82.61" x2="27.33" y2="74.72"/>
  <line class="cls-5" x1="33.17" y1="73.23" x2="29.42" y2="71.42"/>
  <line class="cls-5" x1="45.71" y1="79.3" x2="37.15" y2="75.16"/>
  <g>
    <circle class="cls-3" cx="50.08" cy="26.09" r="16.34"/>
    <g>
      <line class="cls-4" x1="50.08" y1="16.48" x2="50.08" y2="32.92"/>
      <polygon class="cls-7" points="42.72 26.96 44.04 25.73 50.08 32.23 56.12 25.73 57.44 26.96 50.08 34.88 42.72 26.96"/>
    </g>
  </g>
</svg>