<?xml version="1.0" encoding="UTF-8"?>
<svg id="Layer_1" data-name="Layer 1" xmlns="http://www.w3.org/2000/svg" viewBox="0 0 100 100">
  <defs>
    <style>
      .cls-1 {
        fill: #b8f4ef;
      }

      .cls-1, .cls-2, .cls-3, .cls-4, .cls-5, .cls-6, .cls-7 {
        stroke: #22263e;
        stroke-miterlimit: 10;
        stroke-width: 2px;
      }

      .cls-2 {
        fill: #8cbafa;
      }

      .cls-3, .cls-5 {
        stroke-linecap: round;
      }

      .cls-3, .cls-7 {
        fill: none;
      }

      .cls-4 {
        fill: #f2c397;
      }

      .cls-5 {
        fill: #d1d3d4;
      }

      .cls-6 {
        fill: #b1da7a;
      }
    </style>
  </defs>
  <rect class="cls-1" x="46.11" y="13.18" width="42.48" height="42.56" rx=".81" ry=".81"/>
  <rect class="cls-5" x="11.41" y="50.85" width="44.58" height="4.88" rx=".81" ry=".81"/>
  <path class="cls-2" d="M36.3,28.43H20.08c-3.49,0-6.31,2.83-6.31,6.31v9.16c0,3.49,2.83,6.31,6.31,6.31h18.47v-10.5c0-.15,.18-.22,.28-.11l5.52,5.67c.98,1,2.58,1.04,3.6,.08l9.98-9.36c.32-.3,.33-.8,.03-1.12l-4.33-4.48c-.3-.31-.8-.32-1.11-.02l-5.29,5.17c-.61,.6-1.6,.57-2.18-.06l-4.98-5.41c-.97-1.06-2.34-1.66-3.78-1.66Z"/>
  <line class="cls-3" x1="62.39" y1="24.67" x2="54.8" y2="31.62"/>
  <polyline class="cls-3" points="57.16 22.48 64.31 18.59 72.76 22.48 81 18.59"/>
  <path class="cls-7" d="M21.1,39.33v2.14c0,.75,.61,1.36,1.36,1.36h5.62c.75,0,1.36,.61,1.36,1.36v5.92"/>
  <line class="cls-3" x1="67.35" y1="31.62" x2="82.08" y2="31.62"/>
  <line class="cls-3" x1="67.35" y1="39.33" x2="82.08" y2="39.33"/>
  <line class="cls-3" x1="67.35" y1="46.3" x2="82.08" y2="46.3"/>
  <path class="cls-4" d="M35.27,21.62l-3.51-3.5c0-2.73-2.21-4.94-4.94-4.94h-1.74c-2.73,0-4.94,2.21-4.94,4.94v4.07c0,2.73,2.21,4.94,4.94,4.94h1.74c2.73,0,4.94-2.21,4.94-4.94l3.16,.21c.42,.03,.65-.48,.35-.78Z"/>
  <polygon class="cls-6" points="30.41 28.43 25.95 36.32 22.07 28.43 30.41 28.43"/>
  <g>
    <g>
      <circle class="cls-4" cx="21.35" cy="67.88" r="4.89"/>
      <path class="cls-2" d="M20.43,72.53h1.53c3.05,0,5.53,2.48,5.53,5.53v8.53c0,.13-.1,.23-.23,.23H15.14c-.13,0-.23-.1-.23-.23v-8.53c0-3.05,2.48-5.53,5.53-5.53Z"/>
    </g>
    <g>
      <circle class="cls-4" cx="40.97" cy="67.88" r="4.89"/>
      <path class="cls-6" d="M40.06,72.53h1.53c3.05,0,5.53,2.48,5.53,5.53v8.53c0,.13-.1,.23-.23,.23h-12.13c-.13,0-.23-.1-.23-.23v-8.53c0-3.05,2.48-5.53,5.53-5.53Z"/>
    </g>
    <g>
      <circle class="cls-4" cx="60.59" cy="67.88" r="4.89"/>
      <path class="cls-2" d="M59.68,72.53h1.53c3.05,0,5.53,2.48,5.53,5.53v8.53c0,.13-.1,.23-.23,.23h-12.13c-.13,0-.23-.1-.23-.23v-8.53c0-3.05,2.48-5.53,5.53-5.53Z"/>
    </g>
    <g>
      <circle class="cls-4" cx="80.21" cy="67.88" r="4.89"/>
      <path class="cls-6" d="M79.3,72.53h1.53c3.05,0,5.53,2.48,5.53,5.53v8.53c0,.13-.1,.23-.23,.23h-12.13c-.13,0-.23-.1-.23-.23v-8.53c0-3.05,2.48-5.53,5.53-5.53Z"/>
    </g>
  </g>
  <line class="cls-3" x1="13.76" y1="55.74" x2="13.76" y2="60.39"/>
  <line class="cls-3" x1="53.67" y1="55.74" x2="53.67" y2="59.25"/>
</svg>