<?xml version="1.0" encoding="UTF-8"?>
<svg id="Layer_1" data-name="Layer 1" xmlns="http://www.w3.org/2000/svg" viewBox="0 0 100 100">
  <defs>
    <style>
      .cls-1 {
        fill: #8cbafa;
      }

      .cls-1, .cls-2, .cls-3, .cls-4, .cls-5, .cls-6, .cls-7 {
        stroke: #22263e;
        stroke-miterlimit: 10;
        stroke-width: 2px;
      }

      .cls-2 {
        fill: #ffcc81;
      }

      .cls-3 {
        stroke-linecap: round;
      }

      .cls-3, .cls-4 {
        fill: none;
      }

      .cls-5 {
        fill: #c3c7ca;
      }

      .cls-6 {
        fill: #fedf82;
      }

      .cls-7 {
        fill: #ffcc83;
      }
    </style>
  </defs>
  <g>
    <path class="cls-6" d="M30.27,62.85l19.53,7.08c.1,.04,.2-.04,.2-.14v-25.1c0-.06-.04-.12-.1-.14l-19.53-7.08c-.1-.04-.2,.04-.2,.14v25.1c0,.06,.04,.12,.1,.14Z"/>
    <path class="cls-2" d="M69.73,62.85l-19.53,7.08c-.1,.04-.2-.04-.2-.14v-25.1c0-.06,.04-.12,.1-.14l19.53-7.08c.1-.04,.2,.04,.2,.14v25.1c0,.06-.04,.12-.1,.14Z"/>
    <path class="cls-7" d="M50.4,30.17l19.27,7.15c.06,.02,.05,.1,0,.12l-19.48,7.06c-.12,.04-.26,.04-.38,0l-19.42-7.04c-.08-.03-.08-.14,0-.17l19.2-7.13c.26-.1,.54-.1,.8,0Z"/>
    <path class="cls-5" d="M45.07,31.86l-5.46,2.03c-.24,.09-.24,.43,0,.52l18.34,7.29v5.54c0,.13,.13,.22,.25,.18l5.14-1.83c.07-.03,.12-.1,.12-.18v-5.75l-18.19-7.8c-.07-.03-.14-.03-.21,0Z"/>
    <path class="cls-5" d="M59.17,63.28l-6.69,2.37c-.13,.05-.27-.05-.27-.19v-3.11c0-.09,.05-.16,.14-.19l6.69-2.37c.13-.05,.27,.05,.27,.19v3.11c0,.09-.05,.16-.14,.19Z"/>
    <line class="cls-3" x1="33.11" y1="59.68" x2="36.66" y2="60.97"/>
    <line class="cls-7" x1="49.81" y1="44.51" x2="69.67" y2="37.45"/>
  </g>
  <g>
    <path class="cls-4" d="M16.57,65.53c-2.49-5.34-3.73-11.37-3.36-17.66C14.41,27.61,31.8,12.15,52.06,13.35c9.06,.53,17.15,4.31,23.23,10.13"/>
    <polygon class="cls-1" points="67.37 24.08 73.33 15.91 76.56 24.08 67.37 24.08"/>
  </g>
  <g>
    <path class="cls-4" d="M22.23,73.91c5.09,5.93,12.09,10.29,20.33,12.02,19.86,4.17,39.34-8.55,43.51-28.41,2.05-9.78,0-19.47-4.97-27.28"/>
    <polygon class="cls-1" points="30.13 74.49 22.92 81.58 21.06 72.99 30.13 74.49"/>
  </g>
</svg>