<?xml version="1.0" encoding="UTF-8"?>
<svg id="Layer_1" data-name="Layer 1" xmlns="http://www.w3.org/2000/svg" viewBox="0 0 100 100">
  <defs>
    <style>
      .cls-1 {
        fill: #fff;
      }

      .cls-2 {
        fill: none;
        stroke-linecap: round;
      }

      .cls-2, .cls-3, .cls-4 {
        stroke: #22263e;
        stroke-miterlimit: 10;
        stroke-width: 2px;
      }

      .cls-5 {
        fill: #c5c4cc;
      }

      .cls-6 {
        fill: #8cbafa;
      }

      .cls-3 {
        fill: #f2c397;
      }

      .cls-7 {
        fill: #6fe1ff;
      }

      .cls-4 {
        fill: #c38d69;
      }
    </style>
  </defs>
  <g>
    <rect class="cls-1" x="23.49" y="37.02" width="61.73" height="40.61"/>
    <g>
      <path class="cls-7" d="M27.16,80.75c-.06,.04-.12,.09-.17,.13-.75,.56-1.55,1.03-2.41,1.4-.14,.06-.19,.13-.21,.28-.13,.94-.26,1.88-.4,2.83-.06,.4-.13,.81-.17,1.21-.05,.49-.45,.79-.88,.79-2.15,0-4.29,0-6.44,0-.48,0-.82-.36-.87-.73-.09-.69-.19-1.38-.29-2.07-.11-.74-.21-1.48-.31-2.22-.14-.06-.27-.12-.41-.18-.78-.36-1.52-.8-2.21-1.33-.1-.08-.19-.09-.31-.04-1.25,.51-2.51,1.02-3.76,1.52-.12,.05-.24,.09-.36,.11-.3,.04-.54-.08-.72-.31-.04-.04-.06-.1-.09-.14-1.07-1.85-2.14-3.71-3.21-5.56-.12-.21-.18-.42-.11-.66,.05-.2,.17-.35,.33-.48,.7-.55,1.4-1.1,2.1-1.64,.39-.31,.78-.62,1.18-.92,.1-.08,.12-.16,.11-.28-.04-.37-.07-.74-.09-1.11-.03-.56,.01-1.12,.09-1.68,.02-.16-.01-.26-.15-.37-1.07-.83-2.13-1.67-3.2-2.5-.14-.11-.27-.24-.33-.41-.09-.24-.07-.46,.05-.68,.09-.16,.18-.32,.28-.48,.98-1.69,1.95-3.38,2.93-5.08,.02-.03,.03-.06,.05-.08,.24-.4,.63-.54,1.07-.37,.39,.15,.77,.31,1.15,.46,.91,.37,1.82,.73,2.73,1.1,.1,.04,.17,.04,.26-.03,.78-.6,1.62-1.08,2.52-1.47,.03-.01,.06-.03,.09-.04,.01,0,.02-.02,.04-.03,.08-.55,.16-1.1,.24-1.66,.12-.87,.25-1.74,.37-2.62,.05-.38,.4-.73,.85-.73,2.16,0,4.32,0,6.48,0,.44,0,.8,.33,.86,.75,.19,1.36,.38,2.72,.57,4.08,.02,.14,.07,.22,.21,.28,.87,.37,1.67,.85,2.43,1.41,.12,.09,.21,.1,.34,.05,1.25-.51,2.51-1.02,3.76-1.52,.08-.03,.17-.07,.25-.09,.35-.08,.68,.07,.87,.38,.13,.21,.24,.42,.37,.63,.95,1.65,1.9,3.3,2.85,4.95,.06,.11,.12,.23,.15,.35,.07,.33-.04,.61-.31,.81-.45,.35-.9,.7-1.34,1.05-.65,.51-1.31,1.02-1.96,1.54-.04,.03-.09,.07-.13,.11,.08,.62,.13,1.23,.11,1.84-.02,.39-.05,.78-.09,1.16-.01,.13,.02,.21,.12,.29,.9,.7,1.79,1.4,2.69,2.1,.19,.15,.38,.3,.57,.45,.38,.31,.47,.71,.22,1.14-1.07,1.85-2.14,3.7-3.21,5.56-.27,.47-.75,.53-1.11,.38-1.26-.52-2.52-1.02-3.78-1.53-.07-.03-.14-.05-.22-.08Z"/>
      <polygon class="cls-5" points="23.14 55.41 15.62 55.39 15.66 28.05 52.95 12.61 90.34 28.05 90.34 77.69 83.01 77.69 83.01 32.29 23.19 32.29 23.14 55.41"/>
      <rect class="cls-6" x="23.19" y="32.29" width="59.31" height="8.09"/>
      <g>
        <line class="cls-2" x1="69.8" y1="77.63" x2="96.21" y2="77.63"/>
        <polyline class="cls-2" points="90.34 77.63 90.34 28.05 52.95 12.61 15.66 28.05 15.66 54.67"/>
        <polyline class="cls-2" points="23.19 53.67 23.19 32.29 82.51 32.29 82.51 77.63 34.36 77.63"/>
        <line class="cls-2" x1="23.19" y1="40.38" x2="82.51" y2="40.38"/>
      </g>
      <path class="cls-2" d="M27.16,80.75c-.06,.04-.12,.09-.17,.13-.75,.56-1.55,1.03-2.41,1.4-.14,.06-.19,.13-.21,.28-.13,.94-.26,1.88-.4,2.83-.06,.4-.13,.81-.17,1.21-.05,.49-.45,.79-.88,.79-2.15,0-4.29,0-6.44,0-.48,0-.82-.36-.87-.73-.09-.69-.19-1.38-.29-2.07-.11-.74-.21-1.48-.31-2.22-.14-.06-.27-.12-.41-.18-.78-.36-1.52-.8-2.21-1.33-.1-.08-.19-.09-.31-.04-1.25,.51-2.51,1.02-3.76,1.52-.12,.05-.24,.09-.36,.11-.3,.04-.54-.08-.72-.31-.04-.04-.06-.1-.09-.14-1.07-1.85-2.14-3.71-3.21-5.56-.12-.21-.18-.42-.11-.66,.05-.2,.17-.35,.33-.48,.7-.55,1.4-1.1,2.1-1.64,.39-.31,.78-.62,1.18-.92,.1-.08,.12-.16,.11-.28-.04-.37-.07-.74-.09-1.11-.03-.56,.01-1.12,.09-1.68,.02-.16-.01-.26-.15-.37-1.07-.83-2.13-1.67-3.2-2.5-.14-.11-.27-.24-.33-.41-.09-.24-.07-.46,.05-.68,.09-.16,.18-.32,.28-.48,.98-1.69,1.95-3.38,2.93-5.08,.02-.03,.03-.06,.05-.08,.24-.4,.63-.54,1.07-.37,.39,.15,.77,.31,1.15,.46,.91,.37,1.82,.73,2.73,1.1,.1,.04,.17,.04,.26-.03,.78-.6,1.62-1.08,2.52-1.47,.03-.01,.06-.03,.09-.04,.01,0,.02-.02,.04-.03,.08-.55,.16-1.1,.24-1.66,.12-.87,.25-1.74,.37-2.62,.05-.38,.4-.73,.85-.73,2.16,0,4.32,0,6.48,0,.44,0,.8,.33,.86,.75,.19,1.36,.38,2.72,.57,4.08,.02,.14,.07,.22,.21,.28,.87,.37,1.67,.85,2.43,1.41,.12,.09,.21,.1,.34,.05,1.25-.51,2.51-1.02,3.76-1.52,.08-.03,.17-.07,.25-.09,.35-.08,.68,.07,.87,.38,.13,.21,.24,.42,.37,.63,.95,1.65,1.9,3.3,2.85,4.95,.06,.11,.12,.23,.15,.35,.07,.33-.04,.61-.31,.81-.45,.35-.9,.7-1.34,1.05-.65,.51-1.31,1.02-1.96,1.54-.04,.03-.09,.07-.13,.11,.08,.62,.13,1.23,.11,1.84-.02,.39-.05,.78-.09,1.16-.01,.13,.02,.21,.12,.29,.9,.7,1.79,1.4,2.69,2.1,.19,.15,.38,.3,.57,.45,.38,.31,.47,.71,.22,1.14-1.07,1.85-2.14,3.7-3.21,5.56-.27,.47-.75,.53-1.11,.38-1.26-.52-2.52-1.02-3.78-1.53-.07-.03-.14-.05-.22-.08Z"/>
      <circle class="cls-2" cx="19.45" cy="71.29" r="6.65"/>
    </g>
  </g>
  <g>
    <rect class="cls-4" x="59.37" y="62" width="18.15" height="15.73" rx=".81" ry=".81"/>
    <rect class="cls-3" x="65.9" y="62" width="5.1" height="6.5"/>
  </g>
  <g>
    <rect class="cls-3" x="41.14" y="62" width="18.15" height="15.73" rx=".81" ry=".81"/>
    <rect class="cls-3" x="47.67" y="62" width="5.1" height="6.5"/>
  </g>
  <g>
    <rect class="cls-3" x="50.2" y="45.95" width="18.15" height="15.73" rx=".81" ry=".81"/>
    <rect class="cls-3" x="56.72" y="45.95" width="5.1" height="6.5"/>
  </g>
</svg>