<?xml version="1.0" encoding="UTF-8"?>
<svg xmlns="http://www.w3.org/2000/svg" version="1.1" viewBox="0 0 100 100">
  <defs>
    <style>
      .cls-1 {
        fill: #58595b;
      }

      .cls-1, .cls-2, .cls-3, .cls-4, .cls-5, .cls-6 {
        stroke: #22263e;
        stroke-miterlimit: 10;
        stroke-width: 1.5px;
      }

      .cls-2 {
        fill: #e88d69;
      }

      .cls-2, .cls-4, .cls-5 {
        stroke-linecap: round;
      }

      .cls-3 {
        fill: #a6ebe8;
      }

      .cls-7 {
        fill: #8cbafa;
      }

      .cls-8 {
        fill: #fff;
      }

      .cls-4 {
        fill: none;
      }

      .cls-9 {
        fill: #c5c4cc;
      }

      .cls-5 {
        fill: #d1d3d4;
      }

      .cls-6 {
        fill: #f2c397;
      }
    </style>
  </defs>
  <!-- Generator: Adobe Illustrator 28.6.0, SVG Export Plug-In . SVG Version: 1.2.0 Build 709)  -->
  <g>
    <g id="Layer_1">
      <rect class="cls-8" x="10.5" y="29.6" width="48.2" height="31.7"/>
      <polygon class="cls-9" points="58.9 25.9 12.2 25.9 12.2 61.4 6.5 61.4 6.5 22.6 35.6 10.5 64.8 22.6 64.8 62.2 59 62.2 58.9 25.9"/>
      <rect class="cls-7" x="12.6" y="25.9" width="46.3" height="6.3"/>
      <g>
        <line class="cls-4" x1="1.9" y1="61.3" x2="22.5" y2="61.3"/>
        <polyline class="cls-4" points="64.8 61.3 64.8 22.6 35.6 10.5 6.5 22.6 6.5 61.3"/>
        <polyline class="cls-4" points="67.7 61.3 12.6 61.3 12.6 25.9 58.9 25.9 59.4 61.4"/>
        <line class="cls-4" x1="12.6" y1="32.3" x2="58.9" y2="32.3"/>
      </g>
      <g>
        <rect class="cls-6" x="16.5" y="49.1" width="14.1" height="12.3" rx=".6" ry=".6"/>
        <rect class="cls-6" x="21.6" y="49.1" width="4" height="5.1"/>
      </g>
      <g>
        <rect class="cls-6" x="30.4" y="49.1" width="14.1" height="12.3" rx=".6" ry=".6"/>
        <rect class="cls-6" x="35.5" y="49.1" width="4" height="5.1"/>
      </g>
      <g>
        <path class="cls-2" d="M56.4,86.6h2.9v-31.9c0-.1,0-.3-.3-.3h-14.7c-.4,0-.8.3-1.1.7l-9,17.3c0,.3-.1.5-.1.7v12c0,.8.5,1.4,1.2,1.4h7.5"/>
        <path class="cls-3" d="M41.3,69c-.4,0-.7-.5-.5-1l4.5-9c0-.1.3-.3.5-.3h9.3c.3,0,.5.3.5.7v9c0,.4-.3.7-.5.7h-13.9.1Z"/>
        <path class="cls-5" d="M86.9,86.6h8.4c.5,0,1.1-.7,1.1-1.4v-6h-37v7.5h13.6"/>
        <g>
          <circle class="cls-1" cx="82.3" cy="87.6" r="8"/>
          <circle class="cls-1" cx="82.3" cy="87.6" r="3.1"/>
        </g>
        <g>
          <circle class="cls-1" cx="47.7" cy="87.1" r="8"/>
          <circle class="cls-1" cx="47.7" cy="87.1" r="3.1"/>
        </g>
        <line class="cls-4" x1="50.8" y1="73.1" x2="55.2" y2="73.1"/>
        <g>
          <g>
            <g>
              <rect class="cls-6" x="67.6" y="56" width="10.8" height="10.4" rx=".5" ry=".5"/>
              <rect class="cls-6" x="71.4" y="56" width="3" height="4.2"/>
            </g>
            <g>
              <rect class="cls-6" x="78.5" y="56" width="10.8" height="10.4" rx=".5" ry=".5"/>
              <rect class="cls-6" x="82.3" y="56" width="3" height="4.2"/>
            </g>
          </g>
          <g>
            <g>
              <rect class="cls-6" x="72.8" y="66.4" width="10.8" height="10.4" rx=".5" ry=".5"/>
              <rect class="cls-6" x="76.6" y="66.4" width="3" height="4.2"/>
            </g>
            <g>
              <rect class="cls-6" x="61.9" y="66.4" width="10.8" height="10.4" rx=".5" ry=".5"/>
              <rect class="cls-6" x="65.8" y="66.4" width="3" height="4.2"/>
            </g>
            <g>
              <rect class="cls-6" x="83.5" y="66.4" width="10.8" height="10.4" rx=".5" ry=".5"/>
              <rect class="cls-6" x="87.5" y="66.4" width="3" height="4.2"/>
            </g>
          </g>
          <g>
            <rect class="cls-6" x="73" y="45.6" width="10.8" height="10.4" rx=".5" ry=".5"/>
            <rect class="cls-6" x="76.8" y="45.6" width="3" height="4.2"/>
          </g>
        </g>
      </g>
    </g>
  </g>
</svg>