<?xml version="1.0" encoding="UTF-8"?>
<svg xmlns="http://www.w3.org/2000/svg" version="1.1" viewBox="0 0 100 100">
  <defs>
    <style>
      .cls-1 {
        fill: #58595b;
      }

      .cls-1, .cls-2, .cls-3, .cls-4, .cls-5, .cls-6 {
        stroke: #22263e;
        stroke-miterlimit: 10;
        stroke-width: 1.5px;
      }

      .cls-2 {
        fill: #e88d69;
      }

      .cls-2, .cls-4, .cls-5 {
        stroke-linecap: round;
      }

      .cls-3 {
        fill: #a6ebe8;
      }

      .cls-7 {
        fill: #8cbafa;
      }

      .cls-8 {
        fill: #fff;
      }

      .cls-4 {
        fill: none;
      }

      .cls-9 {
        fill: #c5c4cc;
      }

      .cls-5 {
        fill: #d1d3d4;
      }

      .cls-6 {
        fill: #f2c397;
      }
    </style>
  </defs>
  <!-- Generator: Adobe Illustrator 28.6.0, SVG Export Plug-In . SVG Version: 1.2.0 Build 709)  -->
  <g>
    <g id="Layer_1">
      <rect class="cls-8" x="9.8" y="25.4" width="48.2" height="31.7"/>
      <polygon class="cls-9" points="58.2 21.7 11.5 21.7 11.5 57.2 5.8 57.2 5.8 18.4 34.9 6.3 64.1 18.4 64.1 58 58.3 58 58.2 21.7"/>
      <rect class="cls-7" x="11.9" y="21.7" width="46.3" height="6.3"/>
      <g>
        <line class="cls-4" x1="1.2" y1="57.1" x2="21.8" y2="57.1"/>
        <polyline class="cls-4" points="64.1 57.1 64.1 18.4 34.9 6.3 5.8 18.4 5.8 57.1"/>
        <polyline class="cls-4" points="67 57.1 11.9 57.1 11.9 21.7 58.2 21.7 58.7 57.2"/>
        <line class="cls-4" x1="11.9" y1="28.1" x2="58.2" y2="28.1"/>
      </g>
      <g>
        <rect class="cls-6" x="15.8" y="44.9" width="14.1" height="12.3" rx=".6" ry=".6"/>
        <rect class="cls-6" x="20.9" y="44.9" width="4" height="5.1"/>
      </g>
      <g>
        <rect class="cls-6" x="23.5" y="32.2" width="14.1" height="12.3" rx=".6" ry=".6"/>
        <rect class="cls-6" x="28.6" y="32.2" width="4" height="5.1"/>
      </g>
      <g>
        <rect class="cls-6" x="29.7" y="44.9" width="14.1" height="12.3" rx=".6" ry=".6"/>
        <rect class="cls-6" x="34.8" y="44.9" width="4" height="5.1"/>
      </g>
      <g>
        <path class="cls-2" d="M91.1,84.1h6.7c.6,0,1.1-.4,1.1-1.3v-10.7c0,0,0-.4,0-.6l-8-15.4c-.3-.4-.6-.6-1-.6h-13.1c-.3,0-.3,0-.3.3v28.5h2.6"/>
        <path class="cls-3" d="M92.5,68.6h-12.4c-.3,0-.4-.3-.4-.6v-8c0-.4.3-.6.4-.6h8.3c.3,0,.4,0,.4.3l4,8c0,.4,0,.9-.4.9h0Z"/>
        <path class="cls-5" d="M64,84.3h12.1v-6.7h-33v5.4c0,.6.4,1.3,1,1.3h7.5"/>
        <g>
          <circle class="cls-1" cx="55.8" cy="85.1" r="7.1"/>
          <circle class="cls-1" cx="55.8" cy="85.1" r="2.8"/>
        </g>
        <g>
          <circle class="cls-1" cx="86.7" cy="84.7" r="7.1"/>
          <circle class="cls-1" cx="86.7" cy="84.7" r="2.8"/>
        </g>
        <line class="cls-4" x1="80" y1="72.2" x2="83.9" y2="72.2"/>
        <g>
          <g>
            <g>
              <rect class="cls-6" x="59.3" y="56.9" width="9.6" height="9.3" rx=".4" ry=".4"/>
              <rect class="cls-6" x="62.9" y="56.9" width="2.7" height="3.8"/>
            </g>
            <g>
              <rect class="cls-6" x="49.6" y="56.9" width="9.6" height="9.3" rx=".4" ry=".4"/>
              <rect class="cls-6" x="53.1" y="56.9" width="2.7" height="3.8"/>
            </g>
          </g>
          <g>
            <g>
              <rect class="cls-6" x="54.7" y="66.2" width="9.6" height="9.3" rx=".4" ry=".4"/>
              <rect class="cls-6" x="58.2" y="66.2" width="2.7" height="3.8"/>
            </g>
            <g>
              <rect class="cls-6" x="64.4" y="66.2" width="9.6" height="9.3" rx=".4" ry=".4"/>
              <rect class="cls-6" x="67.9" y="66.2" width="2.7" height="3.8"/>
            </g>
            <g>
              <rect class="cls-6" x="45.1" y="66.2" width="9.6" height="9.3" rx=".4" ry=".4"/>
              <rect class="cls-6" x="48.5" y="66.2" width="2.7" height="3.8"/>
            </g>
          </g>
          <g>
            <rect class="cls-6" x="54.5" y="47.6" width="9.6" height="9.3" rx=".4" ry=".4"/>
            <rect class="cls-6" x="58" y="47.6" width="2.7" height="3.8"/>
          </g>
        </g>
      </g>
    </g>
  </g>
</svg>